<?xml version="1.0" encoding="UTF-8" standalone="no"?>
<!-- Created with Inkscape (http://www.inkscape.org/) -->

<svg
   width="226.9053mm"
   height="149.36932mm"
   viewBox="0 0 226.9053 149.36932"
   version="1.1"
   id="svg1"
   inkscape:version="1.4.2 (ebf0e94, 2025-05-08)"
   sodipodi:docname="logooficial.svg"
   xmlns:inkscape="http://www.inkscape.org/namespaces/inkscape"
   xmlns:sodipodi="http://sodipodi.sourceforge.net/DTD/sodipodi-0.dtd"
   xmlns="http://www.w3.org/2000/svg"
   xmlns:svg="http://www.w3.org/2000/svg">
  <sodipodi:namedview
     id="namedview1"
     pagecolor="#ffffff"
     bordercolor="#cccccc"
     borderopacity="1"
     inkscape:showpageshadow="0"
     inkscape:pageopacity="1"
     inkscape:pagecheckerboard="0"
     inkscape:deskcolor="#d1d1d1"
     inkscape:document-units="mm"
     inkscape:zoom="1.23"
     inkscape:cx="263.00813"
     inkscape:cy="801.21951"
     inkscape:window-width="1366"
     inkscape:window-height="699"
     inkscape:window-x="0"
     inkscape:window-y="0"
     inkscape:window-maximized="1"
     inkscape:current-layer="layer1">
    <inkscape:page
       x="0"
       y="0"
       width="226.9053"
       height="149.36932"
       id="page2"
       margin="0"
       bleed="0" />
  </sodipodi:namedview>
  <defs
     id="defs1">
    <linearGradient
       id="swatch41"
       inkscape:swatch="solid">
      <stop
         style="stop-color:#1a1a1a;stop-opacity:1;"
         offset="0"
         id="stop41" />
    </linearGradient>
    <linearGradient
       id="swatch40"
       inkscape:swatch="solid">
      <stop
         style="stop-color:#000000;stop-opacity:1;"
         offset="0"
         id="stop40" />
    </linearGradient>
    <linearGradient
       id="swatch21"
       inkscape:swatch="solid">
      <stop
         style="stop-color:#8a8a8a;stop-opacity:1;"
         offset="0"
         id="stop21" />
    </linearGradient>
    <linearGradient
       id="swatch8"
       inkscape:swatch="solid">
      <stop
         style="stop-color:#303030;stop-opacity:0.25586855;"
         offset="0"
         id="stop8" />
    </linearGradient>
    <filter
       inkscape:collect="always"
       style="color-interpolation-filters:sRGB"
       id="filter4"
       x="-0.048320362"
       y="-0.047841696"
       width="1.0696886"
       height="1.0960445">
      <feGaussianBlur
         inkscape:collect="always"
         stdDeviation="0.0011863271"
         id="feGaussianBlur4" />
    </filter>
  </defs>
  <g
     inkscape:groupmode="layer"
     id="layer2"
     inkscape:label="Layer 2"
     style="display:inline"
     transform="translate(-435.65788,-82.315965)">
    <g
       id="g4"
       inkscape:export-filename="ElXolotLogo.svg"
       inkscape:export-xdpi="96"
       inkscape:export-ydpi="96">
      <path
         style="fill:#000000;stroke-width:0.327482"
         d="m 440.16987,111.12457 c -2.17889,11.37967 -0.68312,20.16949 1.34628,26.51626 2.02943,6.34678 4.65061,12.34354 5.46692,16.51574 0.81629,4.17222 -19.97341,50.72231 -7.12006,58.31141 12.85334,7.58911 14.85058,8.04047 25.24351,12.10621 10.39292,4.06573 31.86086,10.55354 34.96202,4.89479 3.10114,-5.65877 0.86465,-16.19135 -3.55594,-24.23769 -4.42059,-8.04634 -7.26564,-14.89731 -8.74051,-20.27966 -1.47486,-5.38235 -1.45675,-11.26649 -1.45675,-11.26649 0,0 0.74476,-6.94876 4.01016,-10.13561 3.26538,-3.18685 8.47722,-3.45911 13.29898,-5.24927 4.82175,-1.79015 11.47395,-3.66486 14.30969,-7.97093 2.83575,-4.30607 3.60135,-11.0459 1.64497,-14.3595 -1.95637,-3.31359 -8.00395,-3.10144 -8.00395,-3.10144 0,0 -17.06693,0.23441 -21.51568,-2.64149 -4.44876,-2.8759 -4.12943,-7.08533 -6.28939,-9.67566 -2.15998,-2.59035 -2.72024,-3.24366 -6.92366,-5.4518 -4.20343,-2.20814 -16.11837,-3.37573 -16.11837,-3.37573 0,0 -11.20211,-38.760441 -14.65725,-27.28293 -3.45515,11.477533 -3.72209,15.304133 -5.90097,26.68379 z"
         id="path2-3-3-2"
         sodipodi:nodetypes="zzzzzzzzczzzzczzzczz" />
      <text
         xml:space="preserve"
         style="font-size:35.2778px;text-align:start;writing-mode:lr-tb;direction:ltr;text-anchor:start;opacity:1;fill:#000000;fill-opacity:1;stroke:#000000;stroke-width:1.1;paint-order:fill markers stroke"
         x="527.13141"
         y="152.64423"
         id="text1"><tspan
           style="font-style:normal;font-variant:normal;font-weight:bold;font-stretch:normal;font-size:35.2778px;font-family:'DejaVu Sans Mono';-inkscape-font-specification:'DejaVu Sans Mono Bold';fill:#000000;fill-opacity:1;stroke-width:1.1"
           x="527.13141"
           y="152.64423"
           id="tspan3"
           sodipodi:role="line">EL</tspan></text>
      <text
         xml:space="preserve"
         style="font-size:45.8611px;text-align:start;writing-mode:lr-tb;direction:ltr;text-anchor:start;display:inline;opacity:1;fill:#000000;fill-opacity:1;stroke:#000000;stroke-width:1.1;paint-order:fill markers stroke"
         x="525.97498"
         y="198.87939"
         id="text1-7"><tspan
           style="font-style:normal;font-variant:normal;font-weight:bold;font-stretch:normal;font-size:45.8611px;font-family:'DejaVu Sans Mono';-inkscape-font-specification:'DejaVu Sans Mono Bold';fill:#000000;fill-opacity:1;stroke-width:1.1"
           x="525.97498"
           y="198.87939"
           id="tspan3-7"
           sodipodi:role="line">XOLOT</tspan></text>
      <text
         xml:space="preserve"
         style="font-style:normal;font-variant:normal;font-weight:bold;font-stretch:normal;font-size:17.6389px;font-family:'DejaVu Sans Mono';-inkscape-font-specification:'DejaVu Sans Mono Bold';text-align:start;writing-mode:lr-tb;direction:ltr;text-anchor:start;opacity:1;fill:#000000;fill-opacity:1;stroke:#000000;stroke-width:1.1;paint-order:fill markers stroke"
         x="528.14905"
         y="224.89583"
         id="text4"><tspan
           sodipodi:role="line"
           id="tspan4"
           style="font-style:normal;font-variant:normal;font-weight:normal;font-stretch:normal;font-family:'URW Gothic';-inkscape-font-specification:'URW Gothic';writing-mode:lr-tb;stroke-width:1.1"
           x="528.14905"
           y="224.89583">J O Y E R I A</tspan></text>
      <path
         style="opacity:1;fill:#ff0000;fill-opacity:1;stroke:#000000;stroke-width:1.1;stroke-opacity:1;paint-order:fill markers stroke;filter:url(#filter4)"
         d="m 454.47899,131.64035 c 0,0 12.60978,-6.44508 17.26519,-6.05402 4.65541,0.39106 8.13823,1.44181 8.52048,4.70868 0.38225,3.26687 -2.66394,5.63519 -7.39937,6.7267 -4.73543,1.09151 -18.3863,-5.38136 -18.3863,-5.38136 z"
         id="path4"
         sodipodi:nodetypes="czzzc" />
    </g>
  </g>
</svg>
